<svg width="572" height="74" viewBox="0 0 572 74" fill="none" xmlns="http://www.w3.org/2000/svg">
<g clip-path="url(#clip0_2013_296)">
<path d="M375.831 23.8763H389.59L392.423 17.7042L400.548 0H386.793L378.663 17.7042L375.831 23.8763Z" fill="#040603"/>
<path d="M393.888 23.8763H407.643L410.475 17.7042L418.605 0H404.845L396.72 17.7042L393.888 23.8763Z" fill="#040603"/>
<path d="M395.185 51.0254L397.557 45.8546L405.335 28.9126H373.524L365.75 45.8546H379.505H383.802L381.431 51.0254H395.185Z" fill="#040603"/>
<path d="M352.832 74H366.587H370.884H384.639L392.675 56.5H360.863L352.832 74Z" fill="#040603"/>
<path d="M258.209 51.0254L260.585 45.8546L268.359 28.9126H236.547L228.773 45.8546L226.397 51.0254H240.156L242.528 45.8546H246.826L244.454 51.0254H258.209Z" fill="#040603"/>
<path d="M256.911 23.8763H270.671L273.503 17.7042L281.628 0H267.873L259.743 17.7042L256.911 23.8763Z" fill="#040603"/>
<path d="M238.859 23.8763H252.614L255.446 17.7042L263.571 0H249.816L241.691 17.7042L238.859 23.8763Z" fill="#040603"/>
<path d="M215.855 74H225.312H229.61L237.641 56.5H223.886L215.855 74Z" fill="#040603"/>
<path d="M233.913 74H247.667L255.698 56.5H241.944L233.913 74Z" fill="#040603"/>
<path d="M271.156 74H284.911L292.942 56.5H279.187L271.156 74Z" fill="#040603"/>
<path d="M295.457 51.0254L297.829 45.8546L305.602 28.9126H273.79L266.017 45.8546L263.645 51.0254H277.4L279.776 45.8546H284.074L281.697 51.0254H295.457Z" fill="#040603"/>
<path d="M253.099 74H266.858L274.889 56.5H261.13L253.099 74Z" fill="#040603"/>
<path d="M276.102 23.8763H289.862L292.694 17.7042H296.992L294.16 23.8763H307.914L310.746 17.7042L318.871 0H305.117H300.819H287.06L278.935 17.7042L276.102 23.8763Z" fill="#040603"/>
<path d="M334.696 45.8545H320.941L318.564 51.0253H332.324L334.696 45.8545Z" fill="#040603"/>
<path d="M316.638 45.8546L324.417 28.9126H310.657L302.884 45.8546L300.512 51.0254H314.267L316.638 45.8546Z" fill="#040603"/>
<path d="M289.966 74H303.726H308.023H321.778L329.809 56.5H297.997L289.966 74Z" fill="#040603"/>
<path d="M312.97 23.8763H326.724L329.556 17.7042H333.859L331.027 23.8763H344.781L347.614 17.7042L355.739 0H341.984H337.686H323.927L315.802 17.7042L312.97 23.8763Z" fill="#040603"/>
<path d="M330.616 74H344.371L352.401 56.5H338.647L330.616 74Z" fill="#040603"/>
<path d="M343.534 45.8546L341.157 51.0254H354.917L357.288 45.8546L365.062 28.9126H351.307L343.534 45.8546Z" fill="#040603"/>
<path d="M356.452 17.7042L353.619 23.8763H367.374L370.206 17.7042H374.504L382.634 0H378.331H364.577H360.279L352.154 17.7042H356.452Z" fill="#040603"/>
<path d="M204.997 51.0254H218.757L221.128 45.8546L228.907 28.9126H215.147L207.374 45.8546L204.997 51.0254Z" fill="#040603"/>
<path d="M217.46 23.8763H231.214L234.046 17.7042H238.349L246.474 0H242.171H228.417H224.119L215.994 17.7042H220.292L217.46 23.8763Z" fill="#040603"/>
<path d="M194.456 74H208.211L216.247 56.5H202.487L194.456 74Z" fill="#040603"/>
<path d="M416.372 45.8546L424.145 28.9126H410.391L402.612 45.8546L400.241 51.0254H413.995L416.372 45.8546Z" fill="#040603"/>
<path d="M389.694 74H403.454L411.485 56.5H397.73L389.694 74Z" fill="#040603"/>
<path d="M434.424 45.8546L442.203 28.9126H428.443L420.67 45.8546L418.293 51.0254H432.052L434.424 45.8546Z" fill="#040603"/>
<path d="M407.752 74H421.506L429.542 56.5H415.783L407.752 74Z" fill="#040603"/>
<path d="M412.698 23.8763H426.457L429.29 17.7042H433.587L430.755 23.8763H444.51L447.342 17.7042L455.472 0H441.712H437.415H423.66L415.53 17.7042L412.698 23.8763Z" fill="#040603"/>
<path d="M65.6241 74H79.3787L87.4097 56.5H73.655L65.6241 74Z" fill="#040603"/>
<path d="M70.5704 23.8763H84.325L87.1571 17.7042L95.2821 0H81.5275L73.4025 17.7042L70.5704 23.8763Z" fill="#040603"/>
<path d="M88.6227 23.8763H102.382L105.214 17.7042L113.339 0H99.5848L91.4548 17.7042L88.6227 23.8763Z" fill="#040603"/>
<path d="M47.5668 74H57.0238H61.3215L69.3524 56.5H55.5978L47.5668 74Z" fill="#040603"/>
<path d="M68.2581 28.9126L60.4846 45.8546L58.108 51.0254H71.8676L74.2393 45.8546H78.5271H78.537L76.1653 51.0254H89.9199L95.2821 39.9715L91.4449 35.4134L99.4759 28.9126H68.2581Z" fill="#040603"/>
<path d="M126.787 51.0254L129.164 45.8546L136.937 28.9126H105.125L97.3518 45.8546H111.106H115.404L113.032 51.0254H126.787Z" fill="#040603"/>
<path d="M125.49 23.8763H139.249L142.082 17.7042L150.207 0H136.452L128.322 17.7042L125.49 23.8763Z" fill="#040603"/>
<path d="M107.438 23.8763H121.192L124.024 17.7042L132.149 0H118.395L110.27 17.7042L107.438 23.8763Z" fill="#040603"/>
<path d="M84.434 74H98.1886H102.486H116.246L124.277 56.5H92.4649L84.434 74Z" fill="#040603"/>
<path d="M166.031 45.8546L173.804 28.9126H160.05L152.271 45.8546L149.9 51.0254H163.654L166.031 45.8546Z" fill="#040603"/>
<path d="M118.514 74H121.301H135.056L143.087 56.5H126.544L118.514 74Z" fill="#040603"/>
<path d="M147.974 45.8546L155.747 28.9126H141.992L134.219 45.8546L131.842 51.0254H145.602L147.974 45.8546Z" fill="#040603"/>
<path d="M144.305 23.8763H158.059L160.891 17.7042H165.189L162.357 23.8763H176.117L178.949 17.7042L187.074 0H173.314H169.016H155.262L147.137 17.7042L144.305 23.8763Z" fill="#040603"/>
<path d="M139.353 74H153.113L161.144 56.5H147.389L139.353 74Z" fill="#040603"/>
<path d="M158.168 74H171.923H176.221H189.98L198.011 56.5H166.199L158.168 74Z" fill="#040603"/>
<path d="M171.086 45.8546L168.709 51.0254H182.464L184.841 45.8546H189.138L186.767 51.0254H200.521L202.898 45.8546L210.671 28.9126H178.86L171.086 45.8546Z" fill="#040603"/>
<path d="M181.172 23.8763H194.926L197.759 17.7042L205.884 0H192.129L184.004 17.7042L181.172 23.8763Z" fill="#040603"/>
<path d="M497.716 0H462.686L452.184 22.88H467.652L470.147 17.4352H495.201L523.022 31.9014V43.4087L495.399 56.5648H452.189L452.224 56.5H436.756L428.725 74H497.716L572 38.6215L497.716 0Z" fill="#040603"/>
<path d="M449.709 29.2712L439.727 51.0254H485.199L480.753 40.5842L485.947 29.2712H449.709Z" fill="#040603"/>
<path d="M70.3723 23.8762H0.247559V28.9125H68.2086L70.3723 23.8762Z" fill="#040603"/>
<path d="M77.0516 0H0V16.5834H69.5554L77.0516 0Z" fill="#040603"/>
<path d="M0.247559 62.946V74H42.6898L47.6411 62.946H0.247559Z" fill="#040603"/>
<path d="M55.5978 56.5H0.247559V51.0254H58.1081L55.5978 56.5Z" fill="#040603"/>
</g>
<defs>
<clipPath id="clip0_2013_296">
<rect width="572" height="74" fill="white"/>
</clipPath>
</defs>
</svg>
