<svg width="1071" height="138" viewBox="0 0 1071 138" fill="none" xmlns="http://www.w3.org/2000/svg">
<g clip-path="url(#clip0_2013_361)">
<path d="M703.697 44.526H729.46L734.763 33.016L749.976 0H724.222L709 33.016L703.697 44.526Z" fill="#040603"/>
<path d="M737.507 44.526H763.261L768.564 33.016L783.786 0H758.023L742.81 33.016L737.507 44.526Z" fill="#040603"/>
<path d="M739.936 95.1554L744.377 85.5126L758.941 53.918H699.377L684.822 85.5126H710.576H718.623L714.182 95.1554H739.936Z" fill="#040603"/>
<path d="M660.635 138H686.389H694.436H720.19L735.236 105.365H675.672L660.635 138Z" fill="#040603"/>
<path d="M483.464 95.1554L487.914 85.5126L502.469 53.918H442.905L428.35 85.5126L423.9 95.1554H449.663L454.104 85.5126H462.151L457.71 95.1554H483.464Z" fill="#040603"/>
<path d="M481.035 44.526H506.798L512.101 33.016L527.314 0H501.56L486.338 33.016L481.035 44.526Z" fill="#040603"/>
<path d="M447.234 44.526H472.988L478.291 33.016L493.504 0H467.75L452.537 33.016L447.234 44.526Z" fill="#040603"/>
<path d="M404.163 138H421.87H429.917L444.954 105.365H419.2L404.163 138Z" fill="#040603"/>
<path d="M437.973 138H463.727L478.764 105.365H453.01L437.973 138Z" fill="#040603"/>
<path d="M507.707 138H533.46L548.497 105.365H522.744L507.707 138Z" fill="#040603"/>
<path d="M553.207 95.1554L557.648 85.5126L572.202 53.918H512.639L498.084 85.5126L493.643 95.1554H519.397L523.847 85.5126H531.894L527.444 95.1554H553.207Z" fill="#040603"/>
<path d="M473.897 138H499.66L514.697 105.365H488.934L473.897 138Z" fill="#040603"/>
<path d="M516.968 44.526H542.731L548.034 33.016H556.081L550.778 44.526H576.532L581.835 33.016L597.048 0H571.294H563.247H537.484L522.271 33.016L516.968 44.526Z" fill="#040603"/>
<path d="M626.677 85.5127H600.923L596.473 95.1555H622.236L626.677 85.5127Z" fill="#040603"/>
<path d="M592.867 85.5126L607.431 53.918H581.668L567.113 85.5126L562.672 95.1554H588.426L592.867 85.5126Z" fill="#040603"/>
<path d="M542.926 138H568.689H576.736H602.49L617.527 105.365H557.963L542.926 138Z" fill="#040603"/>
<path d="M585.997 44.526H611.751L617.054 33.016H625.11L619.807 44.526H645.561L650.864 33.016L666.077 0H640.323H632.276H606.513L591.3 33.016L585.997 44.526Z" fill="#040603"/>
<path d="M619.038 138H644.792L659.829 105.365H634.075L619.038 138Z" fill="#040603"/>
<path d="M643.225 85.5126L638.775 95.1554H664.538L668.979 85.5126L683.534 53.918H657.78L643.225 85.5126Z" fill="#040603"/>
<path d="M667.412 33.016L662.109 44.526H687.863L693.166 33.016H701.213L716.435 0H708.379H682.625H674.578L659.365 33.016H667.412Z" fill="#040603"/>
<path d="M383.832 95.1554H409.595L414.036 85.5126L428.6 53.918H402.837L388.282 85.5126L383.832 95.1554Z" fill="#040603"/>
<path d="M407.167 44.526H432.92L438.223 33.016H446.279L461.492 0H453.436H427.682H419.636L404.422 33.016H412.469L407.167 44.526Z" fill="#040603"/>
<path d="M364.095 138H389.849L404.895 105.365H379.132L364.095 138Z" fill="#040603"/>
<path d="M779.605 85.5126L794.16 53.918H768.406L753.842 85.5126L749.401 95.1554H775.155L779.605 85.5126Z" fill="#040603"/>
<path d="M729.655 138H755.418L770.455 105.365H744.701L729.655 138Z" fill="#040603"/>
<path d="M813.406 85.5126L827.97 53.918H802.207L787.652 85.5126L783.202 95.1554H808.965L813.406 85.5126Z" fill="#040603"/>
<path d="M763.465 138H789.219L804.265 105.365H778.502L763.465 138Z" fill="#040603"/>
<path d="M772.726 44.526H798.49L803.792 33.016H811.839L806.536 44.526H832.29L837.593 33.016L852.815 0H827.052H819.005H793.252L778.029 33.016L772.726 44.526Z" fill="#040603"/>
<path d="M122.873 138H148.627L163.664 105.365H137.91L122.873 138Z" fill="#040603"/>
<path d="M132.134 44.526H157.888L163.191 33.016L178.404 0H152.65L137.437 33.016L132.134 44.526Z" fill="#040603"/>
<path d="M165.935 44.526H191.698L197.001 33.016L212.214 0H186.46L171.238 33.016L165.935 44.526Z" fill="#040603"/>
<path d="M89.063 138H106.77H114.817L129.854 105.365H104.1L89.063 138Z" fill="#040603"/>
<path d="M127.805 53.918L113.25 85.5126L108.8 95.1554H134.563L139.004 85.5126H147.032H147.051L142.61 95.1554H168.364L178.404 74.5413L171.219 66.0412L186.256 53.918H127.805Z" fill="#040603"/>
<path d="M237.393 95.1554L241.843 85.5126L256.398 53.918H196.834L182.279 85.5126H208.033H216.08L211.639 95.1554H237.393Z" fill="#040603"/>
<path d="M234.964 44.526H260.727L266.03 33.016L281.243 0H255.49L240.267 33.016L234.964 44.526Z" fill="#040603"/>
<path d="M201.164 44.526H226.917L232.22 33.016L247.433 0H221.68L206.466 33.016L201.164 44.526Z" fill="#040603"/>
<path d="M158.092 138H183.846H191.893H217.656L232.693 105.365H173.129L158.092 138Z" fill="#040603"/>
<path d="M310.872 85.5126L325.427 53.918H299.673L285.109 85.5126L280.669 95.1554H306.422L310.872 85.5126Z" fill="#040603"/>
<path d="M221.902 138H227.121H252.875L267.912 105.365H236.939L221.902 138Z" fill="#040603"/>
<path d="M277.062 85.5126L291.617 53.918H265.863L251.309 85.5126L246.859 95.1554H272.622L277.062 85.5126Z" fill="#040603"/>
<path d="M270.193 44.526H295.947L301.249 33.016H309.296L303.994 44.526H329.757L335.059 33.016L350.273 0H324.509H316.463H290.709L275.496 33.016L270.193 44.526Z" fill="#040603"/>
<path d="M260.922 138H286.685L301.722 105.365H275.968L260.922 138Z" fill="#040603"/>
<path d="M296.151 138H321.904H329.951H355.714L370.751 105.365H311.188L296.151 138Z" fill="#040603"/>
<path d="M320.338 85.5126L315.888 95.1554H341.642L346.092 85.5126H354.138L349.698 95.1554H375.452L379.902 85.5126L394.456 53.918H334.893L320.338 85.5126Z" fill="#040603"/>
<path d="M339.222 44.526H364.976L370.279 33.016L385.492 0H359.738L344.525 33.016L339.222 44.526Z" fill="#040603"/>
<path d="M931.913 0H866.323L846.66 42.6681H875.621L880.294 32.5143H927.203L979.295 59.4919V80.9513L927.574 105.486H846.669L846.734 105.365H817.772L802.735 138H931.913L1071 72.0238L931.913 0Z" fill="#040603"/>
<path d="M842.024 54.5869L823.335 95.1555H908.476L900.151 75.6841L909.876 54.5869H842.024Z" fill="#040603"/>
<path d="M131.764 44.5261H0.463562V53.9181H127.712L131.764 44.5261Z" fill="#040603"/>
<path d="M144.27 0H0V30.9257H130.234L144.27 0Z" fill="#040603"/>
<path d="M0.463562 117.386V138H79.9315L89.2021 117.386H0.463562Z" fill="#040603"/>
<path d="M104.1 105.365H0.463562V95.1555H108.8L104.1 105.365Z" fill="#040603"/>
</g>
<defs>
<clipPath id="clip0_2013_361">
<rect width="1071" height="138" fill="white"/>
</clipPath>
</defs>
</svg>
